<?xml version="1.0" encoding="UTF-8"?>
<svg xmlns="http://www.w3.org/2000/svg" xmlns:xlink="http://www.w3.org/1999/xlink" width="841.89pt" height="595.28pt" viewBox="0 0 841.89 595.28" version="1.1">
<g id="surface1">
<path style=" stroke:none;fill-rule:nonzero;fill:rgb(21.154785%,34.068298%,54.328918%);fill-opacity:1;" d="M 229.027344 314.390625 L 229.027344 358.835938 L 191.988281 358.835938 L 191.988281 210.679688 L 229.027344 210.679688 L 229.027344 285.816406 L 245.957031 285.816406 L 269.238281 246.660156 L 308.394531 246.660156 L 276.648438 300.632813 L 308.394531 358.835938 L 269.238281 358.835938 L 244.898438 314.390625 Z M 229.027344 314.390625 "/>
<path style=" stroke:none;fill-rule:nonzero;fill:rgb(21.154785%,34.068298%,54.328918%);fill-opacity:1;" d="M 385.648438 281.582031 C 385.648438 275.941406 382.824219 273.117188 377.179688 273.117188 L 351.78125 273.117188 C 346.136719 273.117188 343.316406 275.941406 343.316406 281.582031 L 343.316406 323.914063 C 343.316406 329.558594 346.136719 332.378906 351.78125 332.378906 L 377.179688 332.378906 C 382.824219 332.378906 385.648438 329.558594 385.648438 323.914063 Z M 422.6875 327.089844 C 422.6875 337.671875 419.6875 345.960938 413.691406 351.957031 C 407.691406 357.957031 399.402344 360.953125 388.820313 360.953125 L 340.140625 360.953125 C 329.558594 360.953125 321.269531 357.957031 315.273438 351.957031 C 309.273438 345.960938 306.277344 337.671875 306.277344 327.089844 L 306.277344 278.40625 C 306.277344 267.824219 309.273438 259.539063 315.273438 253.539063 C 321.269531 247.542969 329.558594 244.542969 340.140625 244.542969 L 388.820313 244.542969 C 399.402344 244.542969 407.691406 247.542969 413.691406 253.539063 C 419.6875 259.539063 422.6875 267.824219 422.6875 278.40625 Z M 422.6875 327.089844 "/>
<path style=" stroke:none;fill-rule:nonzero;fill:rgb(21.154785%,34.068298%,54.328918%);fill-opacity:1;" d="M 495.703125 275.234375 C 488.222656 275.234375 479.757813 276.644531 470.304688 279.464844 L 470.304688 358.835938 L 433.265625 358.835938 L 433.265625 246.660156 L 466.074219 246.660156 L 468.1875 257.242188 C 474.820313 252.871094 481.628906 249.660156 488.613281 247.613281 C 495.597656 245.570313 501.488281 244.546875 506.285156 244.546875 L 515.808594 244.546875 C 525.402344 244.546875 533.09375 247.4375 538.882813 253.222656 C 544.664063 259.007813 547.558594 266.699219 547.558594 276.292969 L 547.558594 358.835938 L 510.519531 358.835938 L 510.519531 282.640625 C 510.519531 280.523438 509.8125 278.761719 508.402344 277.347656 C 506.992188 275.941406 505.226563 275.234375 503.113281 275.234375 Z M 495.703125 275.234375 "/>
<path style=" stroke:none;fill-rule:nonzero;fill:rgb(21.154785%,34.068298%,54.328918%);fill-opacity:1;" d="M 605.761719 326.03125 C 614.652344 326.03125 623.117188 325.324219 631.160156 323.914063 L 631.160156 275.234375 L 601.527344 275.234375 C 595.882813 275.234375 593.0625 278.058594 593.0625 283.699219 L 593.0625 318.621094 C 593.0625 320.738281 593.765625 322.507813 595.179688 323.914063 C 596.585938 325.324219 598.351563 326.03125 600.46875 326.03125 Z M 631.160156 350.371094 C 617.46875 353.195313 605.476563 354.601563 595.179688 354.601563 L 587.769531 354.601563 C 578.171875 354.601563 570.484375 351.714844 564.699219 345.925781 C 558.910156 340.140625 556.023438 332.453125 556.023438 322.855469 L 556.023438 280.523438 C 556.023438 269.941406 559.019531 261.65625 565.019531 255.65625 C 571.015625 249.660156 579.304688 246.660156 589.886719 246.660156 L 668.199219 246.660156 L 668.199219 365.1875 C 668.199219 374.78125 665.304688 382.46875 659.519531 388.257813 C 653.734375 394.039063 646.042969 396.933594 636.449219 396.933594 C 614.296875 396.933594 589.605469 395.519531 562.371094 392.699219 L 562.371094 365.1875 C 589.320313 367.300781 609.78125 368.359375 623.75 368.359375 C 625.867188 368.359375 627.628906 367.652344 629.042969 366.246094 C 630.449219 364.832031 631.160156 363.070313 631.160156 360.953125 Z M 631.160156 350.371094 "/>
<path style=" stroke:none;fill-rule:nonzero;fill:rgb(21.154785%,34.068298%,54.328918%);fill-opacity:1;" d="M 725.34375 331.320313 C 732.820313 331.320313 741.285156 329.914063 750.742188 327.089844 L 750.742188 314.390625 L 720.050781 314.390625 C 717.9375 314.390625 716.167969 315.097656 714.757813 316.507813 C 713.347656 317.917969 712.644531 319.679688 712.644531 321.796875 L 712.644531 323.914063 C 712.644531 326.03125 713.347656 327.796875 714.757813 329.203125 C 716.167969 330.617188 717.9375 331.320313 720.050781 331.320313 Z M 686.1875 248.777344 C 712.007813 245.957031 735.289063 244.546875 756.03125 244.546875 C 765.625 244.546875 773.316406 247.4375 779.101563 253.222656 C 784.886719 259.007813 787.78125 266.699219 787.78125 276.292969 L 787.78125 358.835938 L 754.972656 358.835938 L 752.859375 348.253906 C 746.222656 352.628906 739.417969 355.839844 732.433594 357.882813 C 725.449219 359.929688 719.554688 360.953125 714.757813 360.953125 L 707.351563 360.953125 C 697.753906 360.953125 690.066406 358.0625 684.28125 352.273438 C 678.496094 346.492188 675.605469 338.800781 675.605469 329.203125 L 675.605469 319.679688 C 675.605469 310.085938 678.496094 302.398438 684.28125 296.609375 C 690.066406 290.828125 697.753906 287.933594 707.351563 287.933594 L 750.742188 287.933594 L 750.742188 279.46875 C 750.742188 277.347656 750.03125 275.589844 748.625 274.175781 C 747.210938 272.765625 745.449219 272.058594 743.332031 272.058594 C 734.15625 272.058594 724.035156 272.480469 712.960938 273.328125 C 701.882813 274.175781 692.960938 274.808594 686.1875 275.234375 Z M 686.1875 248.777344 "/>
<path style=" stroke:none;fill-rule:nonzero;fill:rgb(21.154785%,34.068298%,54.328918%);fill-opacity:1;" d="M 677.410156 401.863281 L 663.742188 401.863281 L 663.742188 387.5 L 677.410156 387.5 Z M 677.410156 401.863281 "/>
<path style=" stroke:none;fill-rule:nonzero;fill:rgb(21.154785%,34.068298%,54.328918%);fill-opacity:1;" d="M 703.628906 402.699219 C 700.898438 402.699219 698.40625 402.375 696.148438 401.722656 C 693.894531 401.074219 691.933594 400.070313 690.261719 398.71875 C 688.609375 397.363281 687.328125 395.652344 686.417969 393.59375 C 685.507813 391.53125 685.054688 389.121094 685.054688 386.351563 C 685.054688 383.4375 685.539063 380.925781 686.515625 378.808594 C 687.488281 376.691406 688.851563 374.9375 690.597656 373.542969 C 692.285156 372.226563 694.234375 371.261719 696.441406 370.648438 C 698.652344 370.035156 700.945313 369.730469 703.320313 369.730469 C 705.457031 369.730469 707.425781 369.960938 709.222656 370.425781 C 711.023438 370.890625 712.703125 371.492188 714.265625 372.234375 L 714.265625 380.785156 L 712.847656 380.785156 C 712.457031 380.449219 711.988281 380.058594 711.441406 379.613281 C 710.894531 379.167969 710.222656 378.734375 709.425781 378.304688 C 708.664063 377.898438 707.832031 377.558594 706.925781 377.289063 C 706.015625 377.019531 704.960938 376.886719 703.753906 376.886719 C 701.085938 376.886719 699.03125 377.734375 697.597656 379.433594 C 696.15625 381.132813 695.4375 383.4375 695.4375 386.351563 C 695.4375 389.359375 696.175781 391.644531 697.648438 393.203125 C 699.125 394.761719 701.214844 395.542969 703.921875 395.542969 C 705.183594 395.542969 706.316406 395.398438 707.324219 395.109375 C 708.335938 394.824219 709.175781 394.484375 709.84375 394.09375 C 710.472656 393.722656 711.027344 393.335938 711.511719 392.925781 C 711.992188 392.515625 712.4375 392.117188 712.847656 391.726563 L 714.265625 391.726563 L 714.265625 400.273438 C 712.6875 401.019531 711.039063 401.609375 709.320313 402.042969 C 707.605469 402.480469 705.703125 402.699219 703.628906 402.699219 "/>
<path style=" stroke:none;fill-rule:nonzero;fill:rgb(21.154785%,34.068298%,54.328918%);fill-opacity:1;" d="M 739.382813 393.84375 C 740.03125 393.046875 740.519531 392.085938 740.84375 390.960938 C 741.167969 389.839844 741.332031 388.28125 741.332031 386.296875 C 741.332031 384.460938 741.164063 382.917969 740.828125 381.675781 C 740.496094 380.429688 740.03125 379.4375 739.4375 378.695313 C 738.84375 377.933594 738.128906 377.398438 737.292969 377.082031 C 736.457031 376.765625 735.558594 376.609375 734.59375 376.609375 C 733.625 376.609375 732.769531 376.738281 732.015625 376.996094 C 731.265625 377.257813 730.542969 377.777344 729.859375 378.554688 C 729.246094 379.28125 728.757813 380.273438 728.398438 381.535156 C 728.035156 382.796875 727.855469 384.386719 727.855469 386.296875 C 727.855469 388.003906 728.011719 389.488281 728.328125 390.738281 C 728.644531 391.992188 729.105469 393 729.71875 393.757813 C 730.3125 394.484375 731.023438 395.011719 731.851563 395.347656 C 732.675781 395.679688 733.617188 395.847656 734.675781 395.847656 C 735.585938 395.847656 736.453125 395.695313 737.277344 395.390625 C 738.105469 395.082031 738.804688 394.566406 739.382813 393.84375 M 751.71875 386.242188 C 751.71875 391.382813 750.21875 395.433594 747.21875 398.398438 C 744.222656 401.359375 740.011719 402.835938 734.59375 402.835938 C 729.171875 402.835938 724.960938 401.359375 721.964844 398.398438 C 718.96875 395.433594 717.46875 391.382813 717.46875 386.242188 C 717.46875 381.0625 718.976563 376.996094 721.992188 374.046875 C 725.011719 371.09375 729.207031 369.617188 734.59375 369.617188 C 740.050781 369.617188 744.269531 371.101563 747.246094 374.074219 C 750.226563 377.042969 751.71875 381.097656 751.71875 386.242188 "/>
<path style=" stroke:none;fill-rule:nonzero;fill:rgb(21.154785%,34.068298%,54.328918%);fill-opacity:1;" d="M 788.308594 379.699219 L 788.308594 401.863281 L 778.253906 401.863281 L 778.253906 386.242188 C 778.253906 384.71875 778.21875 383.425781 778.144531 382.355469 C 778.070313 381.289063 777.867188 380.421875 777.53125 379.753906 C 777.199219 379.085938 776.691406 378.597656 776.011719 378.292969 C 775.335938 377.984375 774.382813 377.832031 773.160156 377.832031 C 772.175781 377.832031 771.21875 378.03125 770.289063 378.429688 C 769.363281 378.828125 768.527344 379.253906 767.785156 379.699219 L 767.785156 401.863281 L 757.734375 401.863281 L 757.734375 370.59375 L 767.785156 370.59375 L 767.785156 374.046875 C 769.507813 372.691406 771.160156 371.632813 772.734375 370.871094 C 774.3125 370.109375 776.054688 369.730469 777.964844 369.730469 C 780.023438 369.730469 781.839844 370.1875 783.414063 371.109375 C 784.992188 372.027344 786.222656 373.378906 787.113281 375.160156 C 789.117188 373.46875 791.0625 372.140625 792.953125 371.175781 C 794.84375 370.214844 796.699219 369.730469 798.511719 369.730469 C 801.886719 369.730469 804.449219 370.742188 806.203125 372.765625 C 807.953125 374.789063 808.828125 377.703125 808.828125 381.507813 L 808.828125 401.863281 L 798.777344 401.863281 L 798.777344 386.242188 C 798.777344 384.699219 798.746094 383.402344 798.679688 382.34375 C 798.617188 381.285156 798.414063 380.421875 798.082031 379.753906 C 797.765625 379.085938 797.261719 378.597656 796.578125 378.292969 C 795.890625 377.984375 794.925781 377.832031 793.679688 377.832031 C 792.847656 377.832031 792.03125 377.976563 791.230469 378.265625 C 790.433594 378.550781 789.457031 379.03125 788.308594 379.699219 "/>
<path style=" stroke:none;fill-rule:nonzero;fill:rgb(96.928406%,58.406067%,9.025574%);fill-opacity:1;" d="M 176.867188 218.359375 C 161.101563 202.613281 141.453125 194.722656 117.910156 194.722656 C 94.375 194.722656 74.726563 202.613281 58.960938 218.359375 C 43.195313 234.128906 35.316406 253.785156 35.316406 277.320313 C 35.316406 300.757813 43.195313 320.367188 58.960938 336.195313 C 74.726563 352.015625 94.375 359.917969 117.910156 359.917969 C 141.453125 359.917969 161.101563 352.042969 176.867188 336.277344 C 192.628906 320.519531 200.507813 300.867188 200.507813 277.320313 C 200.507813 253.785156 192.628906 234.128906 176.867188 218.359375 "/>
<path style=" stroke:none;fill-rule:nonzero;fill:rgb(21.154785%,34.068298%,54.328918%);fill-opacity:1;" d="M 117.910156 196.777344 C 95.0625 196.777344 75.71875 204.53125 60.417969 219.816406 C 45.125 235.101563 37.375 254.449219 37.375 277.320313 C 37.375 300.074219 45.128906 319.394531 60.417969 334.742188 C 75.707031 350.085938 95.046875 357.863281 117.910156 357.863281 C 140.777344 357.863281 160.125 350.113281 175.414063 334.824219 C 190.699219 319.535156 198.453125 300.191406 198.453125 277.320313 C 198.453125 254.453125 190.699219 235.105469 175.414063 219.8125 C 160.109375 204.53125 140.765625 196.777344 117.910156 196.777344 M 117.910156 361.976563 C 93.914063 361.976563 73.59375 353.789063 57.507813 337.644531 C 41.417969 321.5 33.261719 301.203125 33.261719 277.320313 C 33.261719 253.320313 41.417969 232.996094 57.507813 216.90625 C 73.609375 200.820313 93.933594 192.667969 117.910156 192.667969 C 141.894531 192.667969 162.21875 200.820313 178.320313 216.90625 C 194.40625 233 202.5625 253.324219 202.5625 277.320313 C 202.5625 301.320313 194.40625 321.644531 178.320313 337.734375 C 162.234375 353.820313 141.910156 361.976563 117.910156 361.976563 "/>
<path style=" stroke:none;fill-rule:nonzero;fill:rgb(21.154785%,34.068298%,54.328918%);fill-opacity:1;" d="M 75.074219 249.371094 C 78.210938 246.742188 81.640625 245.566406 85.917969 245.476563 C 90.101563 245.351563 94.425781 246.207031 98.644531 247.863281 C 102.878906 249.492188 107.0625 251.949219 111.074219 254.71875 L 112.980469 253.207031 C 110.460938 248.371094 106.605469 244.5 101.941406 241.476563 C 97.261719 238.515625 91.585938 236.726563 85.714844 236.796875 C 82.894531 236.777344 79.691406 237.332031 76.855469 238.605469 C 73.984375 239.863281 71.449219 241.863281 69.574219 244.226563 C 67.660156 246.558594 66.445313 249.246094 65.65625 251.929688 C 64.933594 254.636719 64.574219 257.320313 64.902344 260.140625 L 67.320313 260.425781 C 69.417969 256.03125 71.976563 251.996094 75.074219 249.371094 "/>
<path style=" stroke:none;fill-rule:nonzero;fill:rgb(21.154785%,34.068298%,54.328918%);fill-opacity:1;" d="M 128.738281 241.648438 C 132.464844 239.078125 136.484375 237.246094 140.585938 236.410156 C 144.777344 235.523438 148.375 235.886719 152.03125 237.726563 C 155.644531 239.566406 159.0625 242.921875 162.097656 246.714844 L 164.390625 245.878906 C 164.070313 243.074219 163.109375 240.546875 161.785156 238.054688 C 160.40625 235.632813 158.605469 233.296875 156.207031 231.453125 C 153.84375 229.585938 150.917969 228.222656 147.839844 227.648438 C 144.789063 227.066406 141.542969 227.257813 138.800781 227.917969 C 133.070313 229.195313 127.953125 232.222656 124.070313 236.179688 C 120.222656 240.179688 117.351563 244.839844 116 250.125 L 118.207031 251.160156 C 121.480469 247.546875 124.984375 244.203125 128.738281 241.648438 "/>
<path style=" stroke:none;fill-rule:nonzero;fill:rgb(21.154785%,34.068298%,54.328918%);fill-opacity:1;" d="M 166.722656 297.109375 C 165.003906 301.292969 162.453125 305.160156 159.472656 308.410156 C 158 310.070313 156.394531 311.582031 154.671875 312.933594 C 152.980469 314.328125 151.203125 315.589844 149.324219 316.710938 C 141.808594 321.1875 133.261719 323.773438 124.363281 325.183594 C 115.617188 326.574219 106.636719 326.484375 97.976563 324.523438 C 93.65625 323.503906 89.386719 322.082031 85.3125 320.113281 C 81.230469 318.183594 77.253906 315.753906 73.710938 312.859375 L 72.390625 313.941406 C 75.109375 318.128906 78.75 321.480469 82.746094 324.421875 C 86.78125 327.296875 91.246094 329.65625 95.996094 331.277344 C 105.488281 334.671875 115.832031 335.25 125.730469 333.757813 C 135.441406 332.296875 145.359375 328.988281 153.46875 322.71875 C 161.539063 316.609375 167.707031 307.429688 168.390625 297.375 Z M 166.722656 297.109375 "/>
<path style=" stroke:none;fill-rule:nonzero;fill:rgb(21.154785%,34.068298%,54.328918%);fill-opacity:1;" d="M 116.261719 270.480469 L 119.460938 299.917969 L 121.152344 299.722656 L 117.949219 270.300781 Z M 116.261719 270.480469 "/>
</g>
</svg>
