<?xml version="1.0"?>
<svg version="1.1" xmlns="http://www.w3.org/2000/svg" width="200" height="50" style=""><path fill="#ffffff" d="M24.40478515625,25.9130859375l0,1.28662109375l-1.45263671875,0.37353515625q0.3984375,0.62255859375,0.3984375,1.39453125q0,1.494140625-1.041748046875,2.328369140625t-2.892822265625,0.834228515625l-0.45654296875-0.02490234375l-0.37353515625-0.04150390625q-0.39013671875,0.298828125-0.39013671875,0.6640625q0,0.5478515625,1.39453125,0.5478515625l1.5771484375,0q1.52734375,0,2.328369140625,0.65576171875t0.801025390625,1.92578125q0,1.626953125-1.357177734375,2.5234375t-3.897216796875,0.896484375q-1.9423828125,0-2.967529296875-0.676513671875t-1.025146484375-1.896728515625q0-0.83837890625,0.52294921875-1.40283203125t1.53564453125-0.80517578125q-0.39013671875-0.166015625-0.6806640625-0.543701171875t-0.29052734375-0.801025390625q0-0.53125,0.30712890625-0.884033203125t0.88818359375-0.693115234375q-0.73046875-0.3154296875-1.157958984375-1.0126953125t-0.427490234375-1.6435546875q0-1.51904296875,0.98779296875-2.34912109375t2.822265625-0.830078125q0.39013671875,0,0.925537109375,0.070556640625t0.684814453125,0.103759765625l3.2373046875,0z M17.2412109375,36.5048828125q0,0.52294921875,0.502197265625,0.82177734375t1.406982421875,0.298828125q1.361328125,0,2.13330078125-0.37353515625t0.77197265625-1.02099609375q0-0.52294921875-0.45654296875-0.72216796875t-1.4111328125-0.19921875l-1.3115234375,0q-0.697265625,0-1.166259765625,0.327880859375t-0.468994140625,0.867431640625z M18.16259765625,28.951171875q0,0.75537109375,0.344482421875,1.1953125t1.050048828125,0.43994140625q0.7138671875,0,1.0458984375-0.43994140625t0.33203125-1.1953125q0-1.6767578125-1.3779296875-1.6767578125q-1.39453125,0-1.39453125,1.6767578125z M32.280317382812,25.73876953125q0.5146484375,0,0.85498046875,0.07470703125l-0.19091796875,2.3740234375q-0.30712890625-0.0830078125-0.7470703125-0.0830078125q-1.2119140625,0-1.888427734375,0.62255859375t-0.676513671875,1.7431640625l0,4.72314453125l-2.53173828125,0l0-9.2802734375l1.91748046875,0l0.37353515625,1.560546875l0.12451171875,0q0.431640625-0.7802734375,1.166259765625-1.257568359375t1.597900390625-0.477294921875z M41.882412109375,35.193359375l-0.48974609375-1.26171875l-0.06640625,0q-0.63916015625,0.80517578125-1.315673828125,1.116455078125t-1.763916015625,0.311279296875q-1.33642578125,0-2.104248046875-0.763671875t-0.767822265625-2.1748046875q0-1.4775390625,1.033447265625-2.178955078125t3.116943359375-0.776123046875l1.6103515625-0.0498046875l0-0.40673828125q0-1.4111328125-1.4443359375-1.4111328125q-1.1123046875,0-2.61474609375,0.67236328125l-0.83837890625-1.7099609375q1.60205078125-0.83837890625,3.552734375-0.83837890625q1.86767578125,0,2.86376953125,0.8134765625t0.99609375,2.4736328125l0,6.18408203125l-1.76806640625,0z M41.135341796875,30.8935546875l-0.9794921875,0.033203125q-1.10400390625,0.033203125-1.6435546875,0.3984375t-0.53955078125,1.1123046875q0,1.07080078125,1.228515625,1.07080078125q0.8798828125,0,1.406982421875-0.50634765625t0.527099609375-1.3447265625l0-0.763671875z M51.335092773438,33.34228515625q0.6640625,0,1.59375-0.29052734375l0,1.88427734375q-0.9462890625,0.42333984375-2.32421875,0.42333984375q-1.51904296875,0-2.212158203125-0.767822265625t-0.693115234375-2.303466796875l0-4.47412109375l-1.2119140625,0l0-1.07080078125l1.39453125-0.8466796875l0.73046875-1.958984375l1.61865234375,0l0,1.9755859375l2.59814453125,0l0,1.90087890625l-2.59814453125,0l0,4.47412109375q0,0.53955078125,0.302978515625,0.796875t0.801025390625,0.25732421875z M55.86541015625,23.51416015625q0-1.23681640625,1.3779296875-1.23681640625t1.3779296875,1.23681640625q0,0.58935546875-0.344482421875,0.917236328125t-1.033447265625,0.327880859375q-1.3779296875,0-1.3779296875-1.2451171875z M58.50505859375,35.193359375l-2.53173828125,0l0-9.2802734375l2.53173828125,0l0,9.2802734375z M68.223364257812,35.193359375l-0.48974609375-1.26171875l-0.06640625,0q-0.63916015625,0.80517578125-1.315673828125,1.116455078125t-1.763916015625,0.311279296875q-1.33642578125,0-2.104248046875-0.763671875t-0.767822265625-2.1748046875q0-1.4775390625,1.033447265625-2.178955078125t3.116943359375-0.776123046875l1.6103515625-0.0498046875l0-0.40673828125q0-1.4111328125-1.4443359375-1.4111328125q-1.1123046875,0-2.61474609375,0.67236328125l-0.83837890625-1.7099609375q1.60205078125-0.83837890625,3.552734375-0.83837890625q1.86767578125,0,2.86376953125,0.8134765625t0.99609375,2.4736328125l0,6.18408203125l-1.76806640625,0z M67.476293945312,30.8935546875l-0.9794921875,0.033203125q-1.10400390625,0.033203125-1.6435546875,0.3984375t-0.53955078125,1.1123046875q0,1.07080078125,1.228515625,1.07080078125q0.8798828125,0,1.406982421875-0.50634765625t0.527099609375-1.3447265625l0-0.763671875z"/><path fill="#4d32c7" d="M79.145283203125,22.8291015625l4.22119140625,0q2.88525390625,0,4.188720703125,0.821044921875t1.303466796875,2.611572265625q0,1.21533203125-0.570556640625,1.99462890625t-1.516845703125,0.93701171875l0,0.0927734375q1.28955078125,0.28759765625,1.860107421875,1.076171875t0.570556640625,2.0966796875q0,1.85546875-1.340576171875,2.89453125t-3.641357421875,1.0390625l-5.07470703125,0l0-13.5634765625z M82.021259765625,28.20068359375l1.669921875,0q1.1689453125,0,1.693115234375-0.36181640625t0.524169921875-1.19677734375q0-0.779296875-0.570556640625-1.117919921875t-1.804443359375-0.338623046875l-1.51220703125,0l0,3.01513671875z M82.021259765625,30.48291015625l0,3.53466796875l1.8740234375,0q1.1875,0,1.75341796875-0.45458984375t0.56591796875-1.3916015625q0-1.6884765625-2.412109375-1.6884765625l-1.78125,0z M105.52791503906,29.59228515625q0,3.36767578125-1.669921875,5.1767578125t-4.787109375,1.80908203125t-4.787109375-1.80908203125t-1.669921875-5.1953125t1.674560546875-5.172119140625t4.801025390625-1.785888671875t4.782470703125,1.7998046875t1.656005859375,5.1767578125z M95.628989257813,29.59228515625q0,2.27294921875,0.86279296875,3.42333984375t2.5791015625,1.150390625q3.44189453125,0,3.44189453125-4.57373046875q0-4.5830078125-3.42333984375-4.5830078125q-1.71630859375,0-2.58837890625,1.155029296875t-0.8720703125,3.427978515625z M121.95595703125,29.59228515625q0,3.36767578125-1.669921875,5.1767578125t-4.787109375,1.80908203125t-4.787109375-1.80908203125t-1.669921875-5.1953125t1.674560546875-5.172119140625t4.801025390625-1.785888671875t4.782470703125,1.7998046875t1.656005859375,5.1767578125z M112.05703125,29.59228515625q0,2.27294921875,0.86279296875,3.42333984375t2.5791015625,1.150390625q3.44189453125,0,3.44189453125-4.57373046875q0-4.5830078125-3.42333984375-4.5830078125q-1.71630859375,0-2.58837890625,1.155029296875t-0.8720703125,3.427978515625z M136.98312011719,36.392578125l-3.265625,0l-3.55322265625-5.71484375l-1.21533203125,0.8720703125l0,4.8427734375l-2.8759765625,0l0-13.5634765625l2.8759765625,0l0,6.20654296875l1.1318359375-1.595703125l3.673828125-4.61083984375l3.19140625,0l-4.7314453125,6.00244140625z M139.99612304687,36.392578125l0-13.5634765625l2.8759765625,0l0,13.5634765625l-2.8759765625,0z M159.62484863281,36.392578125l-3.6552734375,0l-5.900390625-10.2607421875l-0.08349609375,0q0.17626953125,2.71826171875,0.17626953125,3.8779296875l0,6.3828125l-2.56982421875,0l0-13.5634765625l3.62744140625,0l5.89111328125,10.15869140625l0.06494140625,0q-0.13916015625-2.64404296875-0.13916015625-3.73876953125l0-6.419921875l2.58837890625,0l0,13.5634765625z M169.49380859375,28.77587890625l5.380859375,0l0,7.0322265625q-1.30810546875,0.4267578125-2.463134765625,0.598388671875t-2.361083984375,0.171630859375q-3.07080078125,0-4.689697265625-1.804443359375t-1.618896484375-5.181396484375q0-3.2841796875,1.878662109375-5.12109375t5.209228515625-1.8369140625q2.08740234375,0,4.0263671875,0.8349609375l-0.95556640625,2.30078125q-1.484375-0.7421875-3.08935546875-0.7421875q-1.86474609375,0-2.9873046875,1.25244140625t-1.12255859375,3.36767578125q0,2.2080078125,0.904541015625,3.372314453125t2.630126953125,1.164306640625q0.89990234375,0,1.82763671875-0.185546875l0-2.82958984375l-2.56982421875,0l0-2.3935546875z M187.41550292968,32.6259765625q0,1.8369140625-1.322021484375,2.89453125t-3.678466796875,1.0576171875q-2.1708984375,0-3.8408203125-0.81640625l0-2.671875q1.373046875,0.6123046875,2.323974609375,0.86279296875t1.739501953125,0.25048828125q0.9462890625,0,1.451904296875-0.36181640625t0.505615234375-1.076171875q0-0.39892578125-0.22265625-0.709716796875t-0.654052734375-0.598388671875t-1.758056640625-0.91845703125q-1.2431640625-0.58447265625-1.86474609375-1.12255859375t-0.99267578125-1.25244140625t-0.37109375-1.669921875q0-1.7998046875,1.219970703125-2.82958984375t3.372314453125-1.02978515625q1.0576171875,0,2.017822265625,0.25048828125t2.008544921875,0.705078125l-0.927734375,2.23583984375q-1.08544921875-0.4453125-1.795166015625-0.62158203125t-1.396240234375-0.17626953125q-0.81640625,0-1.25244140625,0.38037109375t-0.43603515625,0.99267578125q0,0.38037109375,0.17626953125,0.663330078125t0.561279296875,0.54736328125t1.822998046875,0.950927734375q1.90185546875,0.9091796875,2.60693359375,1.822998046875t0.705078125,2.240478515625z"/></svg>
